<svg data-v-fde0c5aa="" xmlns="http://www.w3.org/2000/svg" viewBox="0 0 300 300" class="iconAbove"><!----><defs data-v-fde0c5aa=""><!----></defs><rect data-v-fde0c5aa="" fill="#F0F3F5" x="0" y="0" width="300px" height="300px" class="logo-background-square"></rect><defs data-v-fde0c5aa=""><!----></defs><g data-v-fde0c5aa="" id="e3cf51b5-33cc-44c9-8093-7fb18ab644d1" fill="#2E373B" transform="matrix(4.12632942199707,0,0,4.12632942199707,15.667354469537603,169.3983486828336)"><path d="M2.03 8.58L2.03 4.71L4.24 4.71C4.82 4.71 5.28 4.89 5.63 5.25C5.97 5.60 6.15 6.06 6.15 6.62C6.15 7.18 5.96 7.65 5.60 8.03C5.24 8.39 4.79 8.58 4.24 8.58ZM7.13 6.65C7.13 5.81 6.83 5.12 6.24 4.57C5.66 4.04 4.94 3.78 4.10 3.78L1.05 3.78L1.05 13.30L2.03 13.30L2.03 9.53L4.10 9.53C4.95 9.53 5.66 9.26 6.24 8.73C6.83 8.17 7.13 7.48 7.13 6.65ZM9.45 5.01C9.33 4.89 9.18 4.83 9.01 4.83C8.84 4.83 8.69 4.89 8.57 5.01C8.45 5.13 8.39 5.28 8.39 5.45C8.39 5.63 8.45 5.77 8.57 5.89C8.69 6.02 8.84 6.08 9.01 6.08C9.18 6.08 9.33 6.02 9.45 5.89C9.57 5.77 9.63 5.63 9.63 5.45C9.63 5.28 9.57 5.13 9.45 5.01ZM9.51 13.30L9.51 7.14L8.53 7.14L8.53 13.30ZM17.42 9.35C17.22 8.66 16.85 8.10 16.30 7.67C15.73 7.23 15.10 7.01 14.39 7.01C13.51 7.01 12.77 7.33 12.15 7.97C11.55 8.59 11.24 9.34 11.24 10.22C11.24 11.09 11.55 11.84 12.15 12.48C12.43 12.78 12.76 13.01 13.15 13.18C13.53 13.35 13.92 13.44 14.31 13.44C14.70 13.44 15.05 13.39 15.36 13.28C16.34 12.94 17.01 12.27 17.36 11.28L16.25 11.28C16.07 11.63 15.81 11.90 15.48 12.11C15.15 12.32 14.78 12.42 14.39 12.42C13.79 12.42 13.29 12.20 12.87 11.77C12.46 11.33 12.25 10.82 12.25 10.22C12.25 9.63 12.46 9.12 12.87 8.69C13.06 8.49 13.29 8.33 13.55 8.21C13.81 8.09 14.13 8.04 14.49 8.04C14.85 8.04 15.21 8.16 15.57 8.40C15.92 8.64 16.18 8.96 16.35 9.35ZM23.72 8.58L23.72 4.71L25.93 4.71C26.51 4.71 26.97 4.89 27.31 5.25C27.66 5.60 27.83 6.06 27.83 6.62C27.83 7.18 27.65 7.65 27.29 8.03C26.93 8.39 26.47 8.58 25.93 8.58ZM28.81 6.65C28.81 5.81 28.52 5.12 27.92 4.57C27.34 4.04 26.63 3.78 25.79 3.78L22.74 3.78L22.74 13.30L23.72 13.30L23.72 9.53L25.79 9.53C26.64 9.53 27.35 9.26 27.92 8.73C28.52 8.17 28.81 7.48 28.81 6.65ZM35.04 10.22C35.04 10.82 34.83 11.34 34.42 11.79C34.00 12.24 33.49 12.46 32.87 12.46C32.26 12.46 31.74 12.24 31.32 11.79C30.91 11.34 30.70 10.82 30.70 10.22C30.70 9.62 30.91 9.10 31.32 8.65C31.74 8.20 32.26 7.98 32.87 7.98C33.49 7.98 34.00 8.20 34.42 8.65C34.83 9.10 35.04 9.62 35.04 10.22ZM36.02 13.30L36.02 7.14L35.04 7.14L35.04 8.19C34.99 8.12 34.93 8.05 34.87 7.98C34.29 7.33 33.57 7.00 32.72 7.00C31.87 7.00 31.15 7.33 30.57 7.98C30.00 8.61 29.72 9.36 29.72 10.22C29.72 11.08 30.00 11.83 30.57 12.46C31.15 13.11 31.87 13.44 32.72 13.44C33.57 13.44 34.29 13.11 34.87 12.46C34.93 12.39 34.99 12.32 35.04 12.25L35.04 13.30ZM39.10 13.30L39.10 2.80L38.12 2.80L38.12 13.30ZM47.22 10.08C47.22 9.23 46.90 8.50 46.25 7.88C45.61 7.28 44.86 6.97 44.00 6.97C43.12 6.97 42.36 7.29 41.73 7.92C41.10 8.55 40.78 9.31 40.78 10.19C40.78 11.08 41.10 11.84 41.73 12.46C42.02 12.75 42.36 12.98 42.75 13.15C43.14 13.31 43.60 13.40 44.15 13.40C44.70 13.40 45.23 13.23 45.76 12.89C46.29 12.55 46.68 12.08 46.94 11.49L45.82 11.49C45.61 11.78 45.34 12.01 45.02 12.17C44.70 12.34 44.36 12.42 44.00 12.42C43.48 12.42 43.00 12.25 42.57 11.90C42.16 11.56 41.90 11.13 41.80 10.60L47.22 10.60ZM46.19 9.76L41.82 9.76C41.87 9.50 41.97 9.26 42.11 9.04C42.57 8.31 43.20 7.95 44.00 7.95C44.53 7.95 44.99 8.12 45.40 8.46C45.81 8.80 46.07 9.23 46.19 9.76ZM48.06 8.05L49.60 8.05L49.60 13.30L50.58 13.30L50.58 8.05L52.11 8.05L52.11 7.14L50.58 7.14L50.58 4.75L49.60 4.75L49.60 7.14L48.06 7.14ZM52.67 8.05L54.21 8.05L54.21 13.30L55.19 13.30L55.19 8.05L56.71 8.05L56.71 7.14L55.19 7.14L55.19 4.75L54.21 4.75L54.21 7.14L52.67 7.14ZM64.06 10.08C64.06 9.23 63.74 8.50 63.09 7.88C62.45 7.28 61.71 6.97 60.84 6.97C59.96 6.97 59.20 7.29 58.57 7.92C57.94 8.55 57.62 9.31 57.62 10.19C57.62 11.08 57.94 11.84 58.57 12.46C58.86 12.75 59.20 12.98 59.59 13.15C59.98 13.31 60.45 13.40 60.99 13.40C61.54 13.40 62.07 13.23 62.60 12.89C63.13 12.55 63.52 12.08 63.78 11.49L62.66 11.49C62.45 11.78 62.18 12.01 61.86 12.17C61.54 12.34 61.20 12.42 60.84 12.42C60.32 12.42 59.84 12.25 59.42 11.90C59.00 11.56 58.74 11.13 58.65 10.60L64.06 10.60ZM63.03 9.76L58.66 9.76C58.72 9.50 58.81 9.26 58.95 9.04C59.42 8.31 60.05 7.95 60.84 7.95C61.37 7.95 61.83 8.12 62.24 8.46C62.65 8.80 62.92 9.23 63.03 9.76Z"></path></g><defs data-v-fde0c5aa=""><linearGradient data-v-fde0c5aa="" gradientTransform="rotate(25)" id="122ce172-7cbf-4c8d-b409-39181b5dddef" x1="0%" y1="0%" x2="100%" y2="0%"><stop data-v-fde0c5aa="" offset="0%" stop-color="#326D8A" stop-opacity="1"></stop><stop data-v-fde0c5aa="" offset="100%" stop-color="#D468D7" stop-opacity="1"></stop></linearGradient></defs><g data-v-fde0c5aa="" id="13793dfc-2833-491a-957b-d7e872f0063d" stroke="none" fill="url(#122ce172-7cbf-4c8d-b409-39181b5dddef)" transform="matrix(2.744008779525757,0,0,2.744008779525757,106.09585914933763,75.14378872400643)"><path d="M0 32h32V0H0v32zM2.038 2.038h27.923v27.923H2.038V2.038z"></path><path d="M4.038 27.962h23.923V4.038H4.038v23.924zM21.049 8.25h3.402v3.402h-3.402V8.25zm0 6.049h3.402v3.402h-3.402v-3.402zm0 6.049h3.402v3.402h-3.402v-3.402zM14.299 8.25h3.402v3.402h-3.402V8.25zm0 6.049h3.402v3.402h-3.402v-3.402zm0 6.049h3.402v3.402h-3.402v-3.402zM7.549 8.25h3.402v3.402H7.549V8.25zm0 6.049h3.402v3.402H7.549v-3.402zm0 6.049h3.402v3.402H7.549v-3.402z"></path></g><!----></svg>